inDegrees=yes
name=ik_MT_01200452_orientations.mot
DataType=double
version=3
OpenSimVersion=4.3-2021-08-27-4bc7ad9
endheader
time	pelvis_tilt	pelvis_list	pelvis_rotation	pelvis_tx	pelvis_ty	pelvis_tz	hip_flexion_r	hip_adduction_r	hip_rotation_r	knee_angle_r	knee_angle_r_beta	ankle_angle_r	subtalar_angle_r	mtp_angle_r	hip_flexion_l	hip_adduction_l	hip_rotation_l	knee_angle_l	knee_angle_l_beta	ankle_angle_l	subtalar_angle_l	mtp_angle_l	lumbar_extension	lumbar_bending	lumbar_rotation	arm_flex_r	arm_add_r	arm_rot_r	elbow_flex_r	pro_sup_r	wrist_flex_r	wrist_dev_r	arm_flex_l	arm_add_l	arm_rot_l	elbow_flex_l	pro_sup_l	wrist_flex_l	wrist_dev_l
18.23000000000005	-4.402205186254525	0.3647546106394	171.1884659037973	0	0.9399999999999999	0	12.75583773769344	-15.54494780944567	-5.977051295362265	59.3419715744593	1.035712788599198	-11.55842519303873	3.827928318622499	0	14.19661361127132	5.252170108461614	-5.44578150072407	13.74306243800004	0.2398616888502598	-1.67299263938741	-13.28053668116449	0	-7.877361707980649	-5.903765921652793	2.085857450362063	0	-14.99999980235517	0	75.00017584614665	45.00000025534055	0	5.000000137526114	0	-14.99999980235517	0	75.00017584614665	45.00000025534055	0	5.000000137526114
18.24000000000005	-4.247599451262852	0.5302283090630585	171.9231230482416	0	0.9399999999999999	0	13.5713041437558	-15.80403281867175	-5.98237145569763	58.59254398104545	1.022632809588829	-11.39206010676864	3.14326542117311	0	13.97703571155168	5.334093837768793	-4.866752103097973	13.82821927991913	0.2413479561223481	-1.444116363612489	-13.25366098055381	0	-7.793824549034238	-5.619932843668414	1.778188996747751	0	-14.99999980246247	0	75.00017584614665	45.00000025534055	0	5.000000137526114	0	-14.99999980246247	0	75.00017584614665	45.00000025534055	0	5.000000137526114
18.25000000000005	-4.10481396486855	0.7203678330880249	172.6853007993212	0	0.9399999999999999	0	14.27148208897665	-15.95283286664023	-6.06576443359709	57.56991620462351	1.004784587867918	-11.11530875831274	2.510546721786048	0	13.7807898933041	5.361569020366042	-4.392895419353148	13.94916665869921	0.2434588861037174	-1.204849377113905	-13.16241087693202	0	-7.717424005574141	-5.324999364102486	1.508783525839403	0	-14.99999980257854	0	75.00017584614665	45.00000025534055	0	5.000000137526114	0	-14.99999980257854	0	75.00017584614665	45.00000025534055	0	5.000000137526114
18.26000000000005	-3.95507024236403	0.9114310485875703	173.465006514174	0	0.9399999999999999	0	14.89599304689072	-16.0177858463262	-6.215311976033632	56.34325004853465	0.9833752246213845	-10.71881476114119	1.870109782703862	0	13.62671373222711	5.338681762605802	-4.024549634981885	14.09800857880755	0.2460566676745981	-1.002896440361778	-12.99385656264406	0	-7.624921960452425	-5.031871325375765	1.250636373195836	0	-14.99999980324625	0	75.00017584614665	45.00000025534055	0	5.000000137526114	0	-14.99999980324625	0	75.00017584614665	45.00000025534055	0	5.000000137526114
18.27000000000006	-3.813018704475889	1.104388219975331	174.2868081206572	0	0.9399999999999999	0	15.41700892761761	-15.95448617552758	-6.430549809234435	54.94040236224651	0.958890913591672	-10.16914906622659	1.146913032073521	0	13.48788410203189	5.283405590544309	-3.679653478684611	14.24883951233401	0.2486891640784916	-0.8110263820458832	-12.75669419570166	0	-7.541148631436113	-4.742900617075202	1.015604391249981	0	-14.99999980393156	0	75.00017584614665	45.00000025534055	0	5.000000137526114	0	-14.99999980393156	0	75.00017584614665	45.00000025534055	0	5.000000137526114
18.28000000000006	-3.69396785887825	1.267944864762915	175.1366997160142	0	0.9399999999999999	0	15.84616769886453	-15.75787784406354	-6.628854152552392	53.37674775471957	0.931599992326347	-9.600155448725166	0.3298388080387956	0	13.31658211255209	5.228186356859593	-3.333041618897441	14.38180664938332	0.2510098784169527	-0.6345532768348222	-12.50507909059548	0	-7.494944001430409	-4.455479876686044	0.7718238826612793	0	-14.99999980462215	0	75.00017584614665	45.00000025534055	0	5.000000137526114	0	-14.99999980462215	0	75.00017584614665	45.00000025534055	0	5.000000137526114
18.29000000000006	-3.576804225377813	1.393499572872783	176.0131086648136	0	0.9399999999999999	0	16.25060823188121	-15.48078724044555	-6.767223958604552	51.68326675362042	0.9020431730371973	-9.037395106326429	-0.558246426223703	0	13.16389334237798	5.189738673212951	-2.951713843682394	14.51337349557959	0.2533061530695426	-0.4198932885745152	-12.19961819643441	0	-7.475521837573087	-4.202764751617889	0.5633456272095921	0	-14.99999980531122	0	75.00017584614665	45.00000025534055	0	5.000000137526114	0	-14.99999980531122	0	75.00017584614665	45.00000025534055	0	5.000000137526114
18.30000000000006	-3.471854038172546	1.480246570289511	176.9338325726149	0	0.9399999999999999	0	16.6001944605553	-15.16179897374755	-6.891404447252854	49.79793287009839	0.8691378892703266	-8.618602295724482	-1.448920615004786	0	12.99115488684087	5.192888670763514	-2.55686545809412	14.70416184883342	0.2566360380082799	-0.1492710333480734	-11.8958956121403	0	-7.481829114339713	-3.979016036418436	0.3390586424897858	0	-14.99999980601228	0	75.00017584614665	45.00000025534055	0	5.000000137526114	0	-14.99999980601228	0	75.00017584614665	45.00000025534055	0	5.000000137526114
18.31000000000006	-3.359186367779625	1.510294609537757	177.8744075364005	0	0.9399999999999999	0	16.95830409444354	-14.80743450818684	-6.955173965003543	47.83210436910468	0.8348277093984416	-8.227372435739499	-2.281991352795389	0	12.8610781332227	5.25419912627307	-2.110332614311063	14.97919162884648	0.2614362132105436	0.196922811166913	-11.58774155682437	0	-7.46740114160014	-3.806411319933462	0.1327615117707966	0	-14.99999980671272	0	75.00017584614665	45.00000025534055	0	5.000000137526114	0	-14.99999980671272	0	75.00017584614665	45.00000025534055	0	5.000000137526114
18.32000000000006	-3.243388118943824	1.503988011964671	178.8293875563665	0	0.9399999999999999	0	17.33345561388602	-14.39055412704745	-6.8965896742042	45.8327274105165	0.7999319984825678	-7.84248268249473	-3.013763042431348	0	12.77286214652368	5.330257838037078	-1.620546790318131	15.29190366839866	0.2668940679113558	0.5617354725603453	-11.28301198409106	0	-7.45322449203476	-3.65870762884726	-0.06130405853324337	0	-14.99999980739526	0	75.00017584614665	45.00000025534055	0	5.000000137526114	0	-14.99999980739526	0	75.00017584614665	45.00000025534055	0	5.000000137526114
18.33000000000007	-3.154879658313495	1.49361648260416	179.8159364509825	0	0.9399999999999999	0	17.70670151893634	-13.84135058567951	-6.724080576223699	43.87478807007834	0.7657595104375956	-7.389410280230036	-3.63954557518109	0	12.67439119757897	5.449623847329522	-1.080604282101335	15.62481414062338	0.2727044517660463	0.9051831978116719	-11.02097843882176	0	-7.508488934728357	-3.517310887731148	-0.2188905690562402	0	-14.99999980808116	0	75.00017584614665	45.00000025534055	0	5.000000137526114	0	-14.99999980808116	0	75.00017584614665	45.00000025534055	0	5.000000137526114
18.34000000000007	-3.048022187943732	1.465743957707349	180.812196416889	0	0.9399999999999999	0	18.14990268641293	-13.21672801443087	-6.358155011908547	42.02427998358263	0.7334620514934654	-6.876657296062371	-4.147358538024075	0	12.61542791335899	5.595994027008928	-0.4873484039902175	15.98136753873411	0.2789274825222527	1.243132333063293	-10.80547862129184	0	-7.536754156210689	-3.387181162318645	-0.3794673798760283	0	-14.99999980875508	0	75.00017584614665	45.00000025534055	0	5.000000137526114	0	-14.99999980875508	0	75.00017584614665	45.00000025534055	0	5.000000137526114
18.35000000000007	-2.919061478735115	1.428394719558232	181.8286852657646	0	0.9399999999999999	0	18.61271444705852	-12.53421825079115	-5.852299831497376	40.2435640800792	0.7023826959347049	-6.295721431140555	-4.541144441231573	0	12.59881731851039	5.772455130921563	0.1819118814489601	16.38287512249223	0.2859351118305588	1.607574011207239	-10.64098387846886	0	-7.520419016280992	-3.283284377955314	-0.5053803669271736	0	-14.99999980940814	0	75.00017584614665	45.00000025534055	0	5.000000137526114	0	-14.99999980940814	0	75.00017584614665	45.00000025534055	0	5.000000137526114
18.36000000000007	-2.797841725722852	1.402842443083768	182.8634875759141	0	0.9399999999999999	0	19.03993842121111	-11.79598728585104	-5.270301351665542	38.45171409921714	0.6711090140668646	-5.802188093515332	-4.79187253810094	0	12.5651005166237	5.963091775858846	0.8788816668096036	16.830907772376	0.2937547567274655	1.990736855889762	-10.50117499249366	0	-7.532593880612072	-3.164200979776912	-0.6491945122807841	0	-14.99999981004581	0	75.00017584614665	45.00000025534055	0	5.000000137526114	0	-14.99999981004581	0	75.00017584614665	45.00000025534055	0	5.000000137526114
18.37000000000007	-2.679388111098949	1.380572703100262	183.9331231516871	0	0.9399999999999999	0	19.38399765620234	-11.07157582510365	-4.598584032241209	36.57576682330345	0.6383675575083522	-5.363400086399261	-4.934071227092192	0	12.55642904490382	6.128355325801281	1.667919208100054	17.30450555776335	0.3020205974126283	2.401776455314868	-10.37091639745145	0	-7.517533092197013	-3.055972121852164	-0.7633836127543926	0	-14.99999981067498	0	75.00017584614665	45.00000025534055	0	5.000000137526114	0	-14.99999981067498	0	75.00017584614665	45.00000025534055	0	5.000000137526114
18.38000000000007	-2.558779102086591	1.368527476671122	185.0313833062324	0	0.9399999999999999	0	19.6621342630129	-10.36162060277911	-3.896180119604492	34.58390444609309	0.6036030007794301	-5.141721764771901	-4.930447869729636	0	12.57862384128713	6.298634655465681	2.469588649443495	17.83311539439406	0.3112465795202634	2.811078035196776	-10.22430665706055	0	-7.522478234293367	-2.94013439660887	-0.8961641464274612	0	-14.99999981129142	0	75.00017584614665	45.00000025534055	0	5.000000137526114	0	-14.99999981129142	0	75.00017584614665	45.00000025534055	0	5.000000137526114
18.39000000000008	-2.456664752433584	1.361867060629576	186.1614213449999	0	0.9399999999999999	0	19.8210633655111	-9.68964648175985	-3.184361690806253	32.47288571658372	0.5667587733782241	-5.114885336770915	-4.852865997911076	0	12.59696767598075	6.473435490980295	3.298426525932606	18.41261838615359	0.3213608147516248	3.283977792628798	-10.08009499670483	0	-7.526889599518186	-2.823816555685626	-1.03076781436913	0	-14.99999981189316	0	75.00017584614665	45.00000025534055	0	5.000000137526114	0	-14.99999981189316	0	75.00017584614665	45.00000025534055	0	5.000000137526114
